<svg width="27" height="26" viewBox="0 0 27 26" fill="none" xmlns="http://www.w3.org/2000/svg">
<path d="M12.5466 15.3545L9.13284 11.9408C9.08575 11.8937 9.04867 11.8411 9.02158 11.7831C8.9945 11.725 8.98096 11.6628 8.98096 11.5964C8.98096 11.4636 9.02584 11.3483 9.11562 11.2504C9.20537 11.1525 9.32368 11.1035 9.47054 11.1035H16.6621C16.809 11.1035 16.9273 11.1529 17.0171 11.2518C17.1068 11.3507 17.1517 11.466 17.1517 11.5978C17.1517 11.6308 17.101 11.7452 16.9996 11.941L13.5861 15.3545C13.5077 15.433 13.4265 15.4903 13.3428 15.5264C13.259 15.5625 13.1669 15.5806 13.0663 15.5806C12.9658 15.5806 12.8737 15.5625 12.7899 15.5264C12.7061 15.4903 12.625 15.433 12.5466 15.3545Z" fill="#333236"/>
</svg>
