<svg width="30" height="30" viewBox="0 0 30 30" fill="none" xmlns="http://www.w3.org/2000/svg">
<path d="M2.81241 10.3125H27.1874M2.0753 11.0279L14.2482 26.8166C14.3366 26.9319 14.4504 27.0254 14.5808 27.0897C14.7112 27.154 14.8546 27.1874 14.9999 27.1874C15.1453 27.1874 15.2887 27.154 15.419 27.0897C15.5494 27.0254 15.6632 26.9319 15.7517 26.8166L27.9245 11.0279C28.0442 10.8721 28.1136 10.6835 28.1236 10.4873C28.1335 10.291 28.0835 10.0964 27.9802 9.9293L23.8511 3.26426C23.7661 3.12633 23.6472 3.01242 23.5058 2.93335C23.3644 2.85428 23.2051 2.81268 23.0431 2.8125H6.95675C6.79473 2.81268 6.63544 2.85428 6.49402 2.93335C6.35261 3.01242 6.23375 3.12633 6.14874 3.26426L2.01964 9.9293C1.91631 10.0964 1.8663 10.291 1.87624 10.4873C1.88618 10.6835 1.95561 10.8721 2.0753 11.0279Z" stroke="white" stroke-width="3" stroke-linecap="round" stroke-linejoin="round"/>
<path d="M23.4375 3.75L20.625 10.3125M20.625 10.3125L15 2.8125L9.375 10.3125M20.625 10.3125L15 26.25L9.375 10.3125M6.5625 3.75L9.375 10.3125" stroke="white" stroke-width="3" stroke-linecap="round" stroke-linejoin="round"/>
</svg>
