<svg width="30" height="30" viewBox="0 0 30 30" fill="none" xmlns="http://www.w3.org/2000/svg">
<g clip-path="url(#clip0_82_137)">
<path d="M12.6024 9.19447C12.3159 7.78822 11.9714 5.8974 11.9714 4.90365C11.9688 4.5052 12.0454 4.1102 12.1967 3.74158C12.348 3.37296 12.571 3.03806 12.8527 2.7563C13.1345 2.47455 13.4694 2.25155 13.838 2.10026C14.2066 1.94896 14.6016 1.87237 15.0001 1.87494C16.6729 1.87494 18.0288 3.26303 18.0288 4.90365C18.0288 5.87045 17.686 7.77182 17.3977 9.19447M12.6024 20.8054C12.3147 22.2152 11.9714 24.096 11.9714 25.0962C11.9688 25.4947 12.0454 25.8897 12.1967 26.2583C12.348 26.6269 12.571 26.9618 12.8527 27.2436C13.1345 27.5253 13.4694 27.7483 13.838 27.8996C14.2066 28.0509 14.6016 28.1275 15.0001 28.1249C16.6729 28.1249 18.0288 26.7369 18.0288 25.0962C18.0288 24.1271 17.686 22.2292 17.3977 20.8054M20.8055 12.6023C22.2153 12.3146 24.0962 11.9712 25.0964 11.9712C25.4948 11.9687 25.8898 12.0452 26.2584 12.1965C26.627 12.3478 26.9619 12.5708 27.2437 12.8526C27.5255 13.1343 27.7485 13.4693 27.8997 13.8379C28.051 14.2065 28.1276 14.6015 28.1251 14.9999C28.1251 16.6728 26.737 18.0287 25.0964 18.0287C24.1296 18.0287 22.2282 17.6859 20.8055 17.3976M9.19459 12.6017C7.78834 12.3152 5.8987 11.9712 4.90377 11.9712C4.50532 11.9687 4.11032 12.0452 3.7417 12.1965C3.37308 12.3478 3.03818 12.5708 2.75643 12.8526C2.47467 13.1343 2.25168 13.4693 2.10038 13.8379C1.94908 14.2065 1.87249 14.6015 1.87506 14.9999C1.87506 16.6728 3.26315 18.0287 4.90377 18.0287C5.87057 18.0287 7.77194 17.6859 9.19459 17.3976" stroke="white" stroke-width="3" stroke-miterlimit="10" stroke-linecap="round"/>
<path d="M17.3977 9.19458C18.1917 7.99458 19.2903 6.42603 19.9975 5.71939C20.2774 5.43576 20.6108 5.21055 20.9785 5.05684C21.3461 4.90313 21.7406 4.82397 22.1391 4.82397C22.5376 4.82397 22.9321 4.90313 23.2997 5.05684C23.6674 5.21055 24.0008 5.43576 24.2807 5.71939C25.4637 6.9024 25.4409 8.84244 24.2807 10.0026C23.5975 10.6864 22.0149 11.7997 20.8055 12.6024M9.19458 17.3977C7.99458 18.1917 6.42603 19.2903 5.71939 19.9975C5.43576 20.2774 5.21055 20.6108 5.05684 20.9785C4.90313 21.3461 4.82397 21.7406 4.82397 22.1391C4.82397 22.5376 4.90313 22.9321 5.05684 23.2997C5.21055 23.6674 5.43576 24.0008 5.71939 24.2807C6.9024 25.4637 8.84244 25.4409 10.0026 24.2807C10.6864 23.5975 11.7997 22.0149 12.6024 20.8055M20.8055 17.3977C22.0055 18.1917 23.5741 19.2903 24.2807 19.9975C24.5643 20.2774 24.7896 20.6108 24.9433 20.9785C25.097 21.3461 25.1761 21.7406 25.1761 22.1391C25.1761 22.5376 25.097 22.9321 24.9433 23.2997C24.7896 23.6674 24.5643 24.0008 24.2807 24.2807C23.0977 25.4637 21.1577 25.4409 19.9975 24.2807C19.3126 23.5958 18.201 22.0161 17.3977 20.8055M12.6024 9.19458C11.8096 7.99751 10.7051 6.42193 10.0026 5.71939C9.7227 5.43576 9.38926 5.21055 9.02162 5.05684C8.65398 4.90313 8.25947 4.82397 7.86099 4.82397C7.46251 4.82397 7.068 4.90313 6.70036 5.05684C6.33272 5.21055 5.99928 5.43576 5.71939 5.71939C4.53638 6.9024 4.55923 8.84244 5.71939 10.0026C6.39966 10.6829 7.98697 11.8002 9.19458 12.6024" stroke="white" stroke-width="3" stroke-miterlimit="10" stroke-linecap="round"/>
<path d="M15 18.75C17.0711 18.75 18.75 17.0711 18.75 15C18.75 12.9289 17.0711 11.25 15 11.25C12.9289 11.25 11.25 12.9289 11.25 15C11.25 17.0711 12.9289 18.75 15 18.75Z" stroke="white" stroke-width="3" stroke-miterlimit="10" stroke-linecap="round"/>
</g>
<defs>
<clipPath id="clip0_82_137">
<rect width="30" height="30" fill="white"/>
</clipPath>
</defs>
</svg>
