<svg width="30" height="30" viewBox="0 0 30 30" fill="none" xmlns="http://www.w3.org/2000/svg">
<path d="M27.3931 14.5798C26.3149 9.70601 24.7159 6.59703 22.153 5.83941C21.6566 5.69461 21.1419 5.62238 20.6249 5.62496C19.0493 5.62496 17.8059 6.56246 14.9999 6.56246C12.1938 6.56246 10.9481 5.62496 9.37489 5.62496C8.83627 5.62217 8.29987 5.69434 7.78114 5.83941C5.21474 6.59703 3.62919 9.70894 2.53876 14.5798C1.42548 19.555 1.62704 23.4861 3.80321 24.2408C5.32665 24.7681 6.68895 23.6777 7.97919 22.0728C9.44403 20.2447 11.2481 19.6822 14.9999 19.6822C18.7517 19.6822 20.4854 20.2447 21.9526 22.0728C23.2417 23.6789 24.6544 24.7558 26.1374 24.2502C28.5409 23.4293 28.5069 19.6136 27.3931 14.5798Z" stroke="white" stroke-width="3" stroke-miterlimit="10"/>
<path d="M16.7411 13.5603C17.1849 13.5603 17.5446 13.2005 17.5446 12.7567C17.5446 12.3129 17.1849 11.9531 16.7411 11.9531C16.2973 11.9531 15.9375 12.3129 15.9375 12.7567C15.9375 13.2005 16.2973 13.5603 16.7411 13.5603Z" fill="white"/>
<path d="M19.3192 16.1384C19.1602 16.1384 19.0047 16.0912 18.8725 16.0028C18.7404 15.9144 18.6374 15.7888 18.5766 15.6419C18.5158 15.4949 18.5 15.3332 18.5312 15.1773C18.5624 15.0214 18.6391 14.8782 18.7517 14.7659C18.8643 14.6536 19.0077 14.5772 19.1637 14.5464C19.3197 14.5157 19.4813 14.5319 19.6281 14.593C19.7749 14.6541 19.9003 14.7574 19.9883 14.8898C20.0764 15.0223 20.1232 15.1778 20.1228 15.3368C20.1222 15.5496 20.0373 15.7535 19.8867 15.9037C19.7361 16.054 19.532 16.1384 19.3192 16.1384Z" fill="white"/>
<path d="M19.3192 10.9821C19.763 10.9821 20.1228 10.6224 20.1228 10.1786C20.1228 9.73477 19.763 9.375 19.3192 9.375C18.8754 9.375 18.5156 9.73477 18.5156 10.1786C18.5156 10.6224 18.8754 10.9821 19.3192 10.9821Z" fill="white"/>
<path d="M21.8973 13.5603C22.3411 13.5603 22.7009 13.2005 22.7009 12.7567C22.7009 12.3129 22.3411 11.9531 21.8973 11.9531C21.4535 11.9531 21.0938 12.3129 21.0938 12.7567C21.0938 13.2005 21.4535 13.5603 21.8973 13.5603Z" fill="white"/>
<path d="M9.375 10.3125V15.9375M12.1875 13.125H6.5625" stroke="white" stroke-width="3" stroke-linecap="round" stroke-linejoin="round"/>
</svg>
