<svg width="30" height="30" viewBox="0 0 30 30" fill="none" xmlns="http://www.w3.org/2000/svg">
<g clip-path="url(#clip0_82_91)">
<path d="M27.1875 15C27.1875 8.26934 21.7307 2.8125 15 2.8125C8.26934 2.8125 2.8125 8.26934 2.8125 15C2.8125 21.7307 8.26934 27.1875 15 27.1875C21.7307 27.1875 27.1875 21.7307 27.1875 15Z" stroke="white" stroke-width="2" stroke-miterlimit="10"/>
<path d="M26.1076 10.0863C25.1666 10.0922 25.2591 11.8283 24.0867 11.0092C23.6513 10.7057 23.3836 10.2644 22.8369 10.1303C22.3593 10.0131 21.8701 10.135 21.3984 10.2164C20.8623 10.309 20.2265 10.3506 19.8199 10.7566C19.4267 11.1475 19.2187 11.6719 18.8004 12.065C17.9912 12.8268 17.6496 13.6582 18.1734 14.7352C18.6773 15.7705 19.7314 16.3324 20.8687 16.2586C21.9861 16.1842 23.1468 15.5361 23.1146 17.1598C23.1029 17.734 23.223 18.1324 23.3994 18.6662C23.5629 19.1584 23.5517 19.6353 23.5892 20.1434C23.6584 21.0926 23.833 22.1566 24.3041 22.9951L25.183 21.7553C25.2914 21.6018 25.5181 21.3867 25.572 21.2057C25.6675 20.8852 25.4795 20.3344 25.4578 19.9752C25.4361 19.616 25.4466 19.2521 25.3916 18.893C25.3142 18.3896 25.0166 17.918 24.9756 17.4205C24.9 16.4941 25.0693 15.7547 24.3556 14.9801C23.6666 14.233 22.6564 14.0537 21.6914 14.2055C21.205 14.2816 19.2474 14.5945 20.0332 13.483C20.1884 13.2644 20.4597 13.0852 20.6343 12.8771C20.7861 12.6961 20.9179 12.3633 21.0961 12.2221C21.2742 12.0809 22.0922 11.9186 22.3265 11.9906C22.5609 12.0627 22.8052 12.4008 23.0086 12.5508C23.3842 12.8337 23.8226 13.0219 24.2865 13.0992C25.0869 13.2164 26.7603 12.7512 26.7474 11.7246C26.7451 11.2324 26.2881 10.5469 26.1076 10.0863ZM16.8427 18.5332C16.5304 17.2184 14.7439 16.7789 13.7806 16.0658C13.2269 15.6557 12.7341 15.0223 12.007 14.9707C11.6718 14.9467 11.3912 15.0193 11.059 14.9332C10.7543 14.8547 10.5152 14.6906 10.1906 14.7334C9.58415 14.8131 9.20153 15.4611 8.54997 15.3732C7.93181 15.29 7.29489 14.567 7.15427 13.9781C6.9738 13.2211 7.57263 12.9756 8.21423 12.9082C8.482 12.8801 8.78259 12.8496 9.03981 12.9475C9.37849 13.0734 9.53845 13.4051 9.84255 13.5727C10.4127 13.885 10.5281 13.3857 10.4408 12.8795C10.3101 12.1213 10.1578 11.8119 10.834 11.2904C11.3027 10.9307 11.7035 10.6705 11.6285 10.0242C11.584 9.64453 11.3759 9.47285 11.5699 9.09492C11.717 8.80722 12.1207 8.54765 12.3838 8.37597C13.0629 7.933 15.2929 7.96582 14.3818 6.72597C14.114 6.36211 13.6201 5.71171 13.1513 5.62265C12.5654 5.51191 12.3052 6.16582 11.8968 6.4541C11.475 6.75234 10.6535 7.09101 10.231 6.62988C9.66266 6.00937 10.6078 5.80546 10.817 5.37246C11.0261 4.93945 10.3324 4.12089 9.96091 3.91347L8.21423 5.87226C8.16405 6.2003 8.18152 6.53514 8.26556 6.85618C8.3496 7.17722 8.49843 7.47768 8.7029 7.73906C9.05036 8.18613 9.60349 8.32968 9.62868 8.94023C9.65329 9.52617 9.56188 9.82617 9.17868 10.2381C9.01286 10.4139 8.89567 10.6635 8.72692 10.8281C8.52009 11.0291 8.59685 10.9676 8.27399 11.0227C7.66696 11.1252 7.15016 11.2834 6.56364 11.4451C5.5863 11.7152 5.49606 10.1186 5.05075 9.49218L3.58591 10.6752C3.57009 10.8691 3.82614 11.226 3.89587 11.4369C4.29606 12.6422 5.10349 13.5744 5.62497 14.7275C6.17399 15.9486 7.64821 15.61 8.29919 16.6799C8.87692 17.6291 8.25993 18.8309 8.69235 19.8246C9.00642 20.5459 9.74704 20.7035 10.258 21.2309C10.78 21.7635 10.7689 22.4924 10.8486 23.1855C10.9385 24.0008 11.0843 24.809 11.2851 25.6043C11.356 25.8791 11.4211 26.2424 11.6091 26.4691C11.7381 26.625 12.1804 26.7592 12.0017 26.8107C12.2513 26.8518 12.6961 27.085 12.9041 26.9139C13.1783 26.6889 13.105 25.9963 13.1525 25.6834C13.2949 24.7518 13.7613 23.8406 14.3906 23.1434C15.0123 22.4555 15.8642 21.9896 16.3892 21.2098C16.9008 20.4492 17.0549 19.4232 16.8427 18.5332ZM14.8863 20.0754C14.5347 20.7029 13.7519 21.123 13.2486 21.6217C13.1121 21.757 12.8215 22.2258 12.6504 22.1244C12.5279 22.0518 12.4863 21.4436 12.4412 21.3041C12.2084 20.6019 11.7641 19.9889 11.1691 19.5492C10.9857 19.4103 10.531 19.2299 10.4261 19.0394C10.309 18.8326 10.4144 18.3445 10.4185 18.1195C10.425 17.7914 10.2756 17.2459 10.3564 16.9477C10.4502 16.6037 10.2697 16.8111 10.5773 16.7432C10.7396 16.7068 11.4099 16.8246 11.6121 16.8668C11.9332 16.9336 12.1101 17.1334 12.3633 17.3355C13.0289 17.8693 13.7619 18.2824 14.5078 18.6914C15.0855 19.0113 15.2554 19.4162 14.8863 20.0754ZM10.8082 3.93105C11.0859 4.20234 11.3472 4.52343 11.7615 4.55039C12.1535 4.57675 12.5232 4.36464 12.8654 4.63125C13.2451 4.92421 13.5187 5.29511 14.0226 5.38652C14.5101 5.475 15.0263 5.19023 15.147 4.6916C15.2642 4.2164 15.0117 3.69961 14.9965 3.22265C14.9965 3.15644 15.0322 2.8623 14.9865 2.8125C14.9525 2.775 14.6689 2.81718 14.6256 2.81835C14.308 2.82773 13.9912 2.84961 13.6752 2.88398C12.5231 3.00868 11.3949 3.29774 10.3248 3.74238C10.4672 3.84082 10.6459 3.88007 10.8082 3.93105ZM20.8828 7.22285C21.3802 7.22285 21.8853 7.00019 21.7248 6.4248C21.59 5.94257 21.3603 5.41933 20.8013 5.67949C20.4457 5.84472 19.9418 6.26543 19.9002 6.68261C19.8527 7.15605 20.5511 7.22285 20.8828 7.22285ZM20.4855 9.74062C20.9935 10.0447 21.747 9.90175 22.1302 9.46757C22.4297 9.12773 22.606 8.53769 23.1445 8.53828C23.3816 8.53778 23.6093 8.63061 23.7785 8.79668C24.0011 9.02695 23.9572 9.24316 24.0047 9.53144C24.1107 10.1789 24.805 9.56836 24.9861 9.31757C25.1033 9.1541 25.2621 8.91152 25.2088 8.69882C25.1595 8.50019 24.9275 8.28867 24.8244 8.10644C24.5232 7.5791 24.2754 6.96562 23.8242 6.53964C23.39 6.12949 22.8562 6.17695 22.4443 6.60293C22.1068 6.95449 21.7148 7.23281 21.484 7.66054C21.3211 7.96113 21.1377 8.10468 20.8078 8.18261C20.6261 8.22539 20.4187 8.24121 20.2664 8.36308C19.8422 8.69707 20.0836 9.49922 20.4855 9.74062Z" fill="white"/>
</g>
<defs>
<clipPath id="clip0_82_91">
<rect width="30" height="30" fill="white"/>
</clipPath>
</defs>
</svg>
