<svg width="18" height="18" viewBox="0 0 18 18" fill="none" xmlns="http://www.w3.org/2000/svg">
<path d="M7.83268 10.4994L6.04102 8.70768C5.88824 8.55491 5.69379 8.47852 5.45768 8.47852C5.22157 8.47852 5.02713 8.55491 4.87435 8.70768C4.72157 8.86046 4.64518 9.05491 4.64518 9.29102C4.64518 9.52713 4.72157 9.72157 4.87435 9.87435L7.24935 12.2494C7.41602 12.416 7.61046 12.4994 7.83268 12.4994C8.05491 12.4994 8.24935 12.416 8.41602 12.2494L13.1244 7.54102C13.2771 7.38824 13.3535 7.19379 13.3535 6.95768C13.3535 6.72157 13.2771 6.52713 13.1244 6.37435C12.9716 6.22157 12.7771 6.14518 12.541 6.14518C12.3049 6.14518 12.1105 6.22157 11.9577 6.37435L7.83268 10.4994ZM8.99935 17.3327C7.84657 17.3327 6.76324 17.1139 5.74935 16.6764C4.73546 16.2389 3.85352 15.6452 3.10352 14.8952C2.35352 14.1452 1.75977 13.2632 1.32227 12.2494C0.884766 11.2355 0.666016 10.1521 0.666016 8.99935C0.666016 7.84657 0.884766 6.76324 1.32227 5.74935C1.75977 4.73546 2.35352 3.85352 3.10352 3.10352C3.85352 2.35352 4.73546 1.75977 5.74935 1.32227C6.76324 0.884766 7.84657 0.666016 8.99935 0.666016C10.1521 0.666016 11.2355 0.884766 12.2494 1.32227C13.2632 1.75977 14.1452 2.35352 14.8952 3.10352C15.6452 3.85352 16.2389 4.73546 16.6764 5.74935C17.1139 6.76324 17.3327 7.84657 17.3327 8.99935C17.3327 10.1521 17.1139 11.2355 16.6764 12.2494C16.2389 13.2632 15.6452 14.1452 14.8952 14.8952C14.1452 15.6452 13.2632 16.2389 12.2494 16.6764C11.2355 17.1139 10.1521 17.3327 8.99935 17.3327Z" fill="#4CBFA4"/>
</svg>
