<svg version="1.1" xmlns="http://www.w3.org/2000/svg" xmlns:xlink="http://www.w3.org/1999/xlink" width="18" height="18" viewBox="0,0,256,256"><g fill="#d14343" fill-rule="nonzero" stroke="none" stroke-width="1" stroke-linecap="butt" stroke-linejoin="miter" stroke-miterlimit="10" stroke-dasharray="" stroke-dashoffset="0" font-family="none" font-weight="none" font-size="none" text-anchor="none" style="mix-blend-mode: normal"><g transform="translate(0.00913,0.00913) scale(14.22222,14.22222)"><path d="M7.83268,10.4994l-1.79166,-1.79172c-0.15278,-0.15277 -0.34723,-0.22916 -0.58334,-0.22916c-0.23611,0 -0.43055,0.07639 -0.58333,0.22916c-0.15278,0.15278 -0.22917,0.34723 -0.22917,0.58334c0,0.23611 0.07639,0.43055 0.22917,0.58333l2.375,2.37505c0.16667,0.1666 0.36111,0.25 0.58333,0.25c0.22223,0 0.41667,-0.0834 0.58334,-0.25l4.70838,-4.70838c0.1527,-0.15278 0.2291,-0.34723 0.2291,-0.58334c0,-0.23611 -0.0764,-0.43055 -0.2291,-0.58333c-0.1528,-0.15278 -0.3473,-0.22917 -0.5834,-0.22917c-0.2361,0 -0.4305,0.07639 -0.5833,0.22917zM8.99935,17.3327c-1.15278,0 -2.23611,-0.2188 -3.25,-0.6563c-1.01389,-0.4375 -1.89583,-1.0312 -2.64583,-1.7812c-0.75,-0.75 -1.34375,-1.632 -1.78125,-2.6458c-0.4375,-1.0139 -0.65625,-2.0973 -0.65625,-3.25005c0,-1.15278 0.21875,-2.23611 0.65625,-3.25c0.4375,-1.01389 1.03125,-1.89583 1.78125,-2.64583c0.75,-0.75 1.63194,-1.34375 2.64583,-1.78125c1.01389,-0.4375 2.09722,-0.65625 3.25,-0.65625c1.15275,0 2.23615,0.21875 3.25005,0.65625c1.0138,0.4375 1.8958,1.03125 2.6458,1.78125c0.75,0.75 1.3437,1.63194 1.7812,2.64583c0.4375,1.01389 0.6563,2.09722 0.6563,3.25c0,1.15275 -0.2188,2.23615 -0.6563,3.25005c-0.4375,1.0138 -1.0312,1.8958 -1.7812,2.6458c-0.75,0.75 -1.632,1.3437 -2.6458,1.7812c-1.0139,0.4375 -2.0973,0.6563 -3.25005,0.6563z"></path></g></g></svg>