<svg width="20" height="20" viewBox="0 0 20 20" fill="none" xmlns="http://www.w3.org/2000/svg">
<path d="M4.42316 17.9173C4.00222 17.9173 3.64591 17.7715 3.35425 17.4798C3.06258 17.1881 2.91675 16.8318 2.91675 16.4109V5.25708C2.91675 4.83614 3.06258 4.47983 3.35425 4.18817C3.64591 3.8965 4.00222 3.75067 4.42316 3.75067H5.57702V2.62885C5.57702 2.44617 5.63819 2.29367 5.76052 2.17133C5.88284 2.04901 6.03535 1.98785 6.21804 1.98785C6.40072 1.98785 6.55323 2.04901 6.67556 2.17133C6.79788 2.29367 6.85904 2.44617 6.85904 2.62885V3.75067H13.1731V2.61283C13.1731 2.43549 13.2329 2.28699 13.3526 2.16733C13.4723 2.04768 13.6208 1.98785 13.7981 1.98785C13.9755 1.98785 14.1239 2.04768 14.2436 2.16733C14.3633 2.28699 14.4231 2.43549 14.4231 2.61283V3.75067H15.577C15.9979 3.75067 16.3542 3.8965 16.6459 4.18817C16.9375 4.47983 17.0834 4.83614 17.0834 5.25708V16.4109C17.0834 16.8318 16.9375 17.1881 16.6459 17.4798C16.3542 17.7715 15.9979 17.9173 15.577 17.9173H4.42316ZM4.42316 16.6673H15.577C15.6411 16.6673 15.6998 16.6406 15.7533 16.5872C15.8067 16.5338 15.8334 16.475 15.8334 16.4109V8.59042H4.16673V16.4109C4.16673 16.475 4.19344 16.5338 4.24685 16.5872C4.30028 16.6406 4.35905 16.6673 4.42316 16.6673ZM4.16673 7.34044H15.8334V5.25708C15.8334 5.19297 15.8067 5.1342 15.7533 5.08077C15.6998 5.02735 15.6411 5.00065 15.577 5.00065H4.42316C4.35905 5.00065 4.30028 5.02735 4.24685 5.08077C4.19344 5.1342 4.16673 5.19297 4.16673 5.25708V7.34044Z" fill="#787486"/>
</svg>
